#N canvas 787 27 448 327 10;
#X obj 29 135 cnv 15 400 150 empty empty Controls 5 -10 0 14 -233017
-66577 0;
#X floatatom 42 158 5 0 0 2 Queue FrameQueuei FrameQueue;
#X floatatom 124 158 5 0 0 2 Window SequenceHopi SequenceHop;
#X floatatom 42 212 5 0 0 2 LoBasis LoBasisi LoBasis;
#X obj 247 152 hsl 150 15 0 4 0 0 M_Distance Distancei Distance -2
-6 0 10 -262144 -1 -1 0 1;
#X floatatom 126 213 5 0 0 2 NumBasis NumBasisi NumBasis;
#X obj 30 0 cnv 15 250 75 empty empty Database 5 -10 0 14 -233017 -66577
0;
#X obj 345 85 bng 45 250 50 0 SS_LS empty LIVESPOT -16 -8 0 14 -90133
-250685 -33289;
#X floatatom 245 168 5 0 0 0 - - -;
#X floatatom 345 238 5 0 0 0 HiSec HiSeci HiK;
#X floatatom 246 237 5 0 0 0 LoSec - LoK;
#X obj 167 51 bng 15 250 50 0 SS_LOAD empty LOAD 17 7 0 10 -24198 -241291
-1;
#X obj 167 23 bng 15 250 50 0 SS_SAVE empty SAVE 17 7 0 10 -260818
-260818 -1;
#X obj 247 201 hsl 150 15 0 1 0 0 EnvFollow EnvFollowi EnvFollow -2
-8 0 10 -262144 -33289 -1 0 1;
#X floatatom 244 217 5 0 0 0 - - -;
#X obj 370 18 bng 45 250 50 0 SS_OFF empty OFF 12 -8 0 14 -42246 -241291
-33289;
#X obj 45 23 bng 45 250 50 0 EXTRACT empty Extract -10 -8 0 14 -62784
-241291 -33289;
#N canvas 776 467 464 324 SoundSpotter 0;
#X obj 17 100 dac~;
#X obj 32 27 adc~;
#X obj 17 58 SOUND_SPOTTER_LIGHT;
#X text 14 122 AUDIO OUTPUT;
#X text 30 11 AUDIO INPUT;
#X obj 232 60 dbtorms;
#X obj 232 32 r FB;
#X floatatom 232 88 9 0 0 0 - - -;
#X obj 174 75 *~ 0;
#X obj 154 30 +~;
#X obj 187 170 delwrite~ fbdel 1;
#X obj 178 8 delread~ fbdel 1;
#X obj 232 112 s SSFB;
#X connect 1 0 9 0;
#X connect 2 0 0 0;
#X connect 2 0 8 0;
#X connect 5 0 7 0;
#X connect 5 0 8 1;
#X connect 6 0 5 0;
#X connect 7 0 12 0;
#X connect 8 0 10 0;
#X connect 9 0 2 0;
#X connect 11 0 9 1;
#X restore 44 253 pd SoundSpotter;
#X obj 307 19 bng 45 250 50 0 SS_ON empty ON 12 -8 0 14 -258699 -260818
-33289;
#X obj 246 268 hsl 128 15 0 100 0 0 FB empty FeedBack -2 -8 0 10 -262144
-1 -1 12400 1;
#X floatatom 389 268 5 0 0 0 - SSFB -;
#X connect 4 0 8 0;
#X connect 13 0 14 0;
