#N canvas 435 547 526 373 10;
#X obj 87 269 outlet~;
#X floatatom 64 74 5 0 0 1 FrameQueue FrameQueue -;
#X floatatom 83 131 5 0 0 1 LoBasis LoBasis -;
#X floatatom 92 153 5 0 0 1 NumBasis NumBasis -;
#X floatatom 73 112 5 0 0 1 SequenceSize SequenceHop -;
#X text 105 53 Live Audio Input;
#X text 114 26 Control Messages;
#X text 95 289 Audio;
#X floatatom 102 173 5 0 1 1 Distance M_Distance -;
#X floatatom 111 193 5 0 0 1 LoK LoK -;
#X floatatom 123 212 5 0 0 1 HiK HiK -;
#X floatatom 144 231 5 0 1 1 EnvFollow EnvFollow -;
#X obj 147 269 outlet;
#X text 152 291 Match Frame;
#X text 9 261 Features;
#X obj 360 35 block~ 2048 1 1;
#X obj 221 75 dbtorms;
#X msg 237 60 80;
#X msg 265 58 0;
#X text 245 44 ON;
#X text 282 44 OFF;
#X obj 237 23 r SS_ON;
#X obj 291 23 r SS_OFF;
#X obj 53 92 *~ 0;
#X msg 324 127 stop;
#X obj 324 102 r SS_OFF;
#X text 358 18 FFT Size;
#X text 360 54 Parameters;
#X obj 53 55 inlet~;
#X floatatom 221 99 5 0 0 0 - - -;
#X obj 390 195 savepanel;
#X msg 390 216 dump \$1;
#X obj 390 177 r SS_SAVE;
#X obj 249 170 r SS_LOAD;
#X obj 249 189 openpanel;
#X obj 250 253 openpanel;
#X msg 251 272 load \$1;
#X msg 250 231 bang;
#X msg 329 189 SOUNDFILE;
#X msg 323 248 FEATURES;
#X obj 45 233 soundspotter~;
#X msg 271 127 spot;
#X obj 271 102 r SS_ON;
#X obj 209 118 r SS_LS;
#X msg 211 143 livespot;
#X msg 388 135 extract \$1;
#X msg 249 208 soundfile \$1;
#X obj 388 89 inlet;
#X obj 250 291 s \$0-M_MSG;
#X obj 390 239 s \$0-M_MSG;
#X obj 324 163 s \$0-M_MSG;
#X obj 45 12 r \$0-M_MSG;
#X obj 388 114 openpanel;
#X obj 344 280 print \$0-LOAD;
#X obj 390 156 print \$0-extract;
#X obj 34 36 print \$0-msg;
#X connect 1 0 40 2;
#X connect 2 0 40 4;
#X connect 3 0 40 5;
#X connect 4 0 40 3;
#X connect 8 0 40 6;
#X connect 9 0 40 7;
#X connect 10 0 40 8;
#X connect 11 0 40 9;
#X connect 16 0 23 1;
#X connect 16 0 29 0;
#X connect 17 0 16 0;
#X connect 18 0 16 0;
#X connect 21 0 17 0;
#X connect 22 0 18 0;
#X connect 23 0 40 1;
#X connect 24 0 50 0;
#X connect 25 0 24 0;
#X connect 28 0 23 0;
#X connect 30 0 31 0;
#X connect 31 0 49 0;
#X connect 32 0 30 0;
#X connect 33 0 34 0;
#X connect 33 0 38 0;
#X connect 34 0 46 0;
#X connect 35 0 36 0;
#X connect 36 0 48 0;
#X connect 37 0 35 0;
#X connect 37 0 39 0;
#X connect 38 0 53 0;
#X connect 39 0 53 0;
#X connect 40 1 0 0;
#X connect 40 2 12 0;
#X connect 41 0 50 0;
#X connect 42 0 41 0;
#X connect 43 0 44 0;
#X connect 44 0 50 0;
#X connect 45 0 50 0;
#X connect 45 0 54 0;
#X connect 46 0 37 0;
#X connect 46 0 48 0;
#X connect 47 0 52 0;
#X connect 51 0 40 0;
#X connect 51 0 55 0;
#X connect 52 0 45 0;
#X coords 0 0 2 2 200 200 0;
