#N canvas 195 10 436 459 12;
#X obj 28 111 inlet~;
#X obj 66 396 outlet~;
#X obj 307 291 bang~;
#X obj 307 320 t b b;
#X obj 307 352 timer;
#X floatatom 40 136 5 0 0 1 FrameQueue FrameQueue -;
#X floatatom 67 207 5 0 0 1 LoBasis LoBasis -;
#X floatatom 80 229 5 0 0 1 NumBasis NumBasis -;
#X floatatom 54 157 5 0 0 1 SequenceHop SequenceHop -;
#X text 87 108 Live Audio Input;
#X text 77 82 Control Messages;
#X text 20 398 Audio;
#X text 9 39 FFT Size and Overlap;
#X obj 84 183 s seqHop;
#X obj 55 183 * 2;
#X obj 307 399 s Latency;
#X obj 55 329 * 0.046;
#X floatatom 129 349 7 0 0 0 - - -;
#X obj 106 298 r latency;
#X obj 198 204 hsl 128 15 0 4 0 0 empty M_Distance Distance -2 -6 0
8 -262144 -1 -1 0 1;
#X floatatom 195 228 5 0 1 1 Distance - -;
#X floatatom 160 252 5 0 0 0 LoK LoK -;
#X floatatom 207 252 5 0 0 1 HiK HiK -;
#X obj 14 269 soundspotter~;
#X obj 12 17 block~ 2048 1 1;
#X obj 16 88 r M_MSGL;
#X obj 14 65 r M_MSG;
#X floatatom 180 273 5 0 0 1 EnvFollow EnvFollow -;
#X connect 0 0 23 1;
#X connect 2 0 3 0;
#X connect 3 0 4 0;
#X connect 3 1 4 1;
#X connect 4 0 15 0;
#X connect 5 0 23 2;
#X connect 6 0 23 4;
#X connect 7 0 23 5;
#X connect 8 0 14 0;
#X connect 8 0 23 3;
#X connect 14 0 13 0;
#X connect 14 0 16 0;
#X connect 16 0 17 0;
#X connect 18 0 16 1;
#X connect 19 0 20 0;
#X connect 20 0 23 6;
#X connect 21 0 23 7;
#X connect 22 0 23 8;
#X connect 23 1 1 0;
#X connect 25 0 23 0;
#X connect 26 0 23 0;
#X connect 27 0 23 9;
#X coords 0 0 2 2 200 200 0;
