#N canvas 162 255 506 353 10;
#X obj 45 27 r M_MSG;
#X obj 41 299 outlet~;
#X floatatom 64 74 5 0 0 1 FrameQueue FrameQueue -;
#X floatatom 83 131 5 0 0 1 LoBasis LoBasis -;
#X floatatom 92 153 5 0 0 1 NumBasis NumBasis -;
#X floatatom 73 112 5 0 0 1 SequenceSize SequenceHop -;
#X text 105 53 Live Audio Input;
#X text 102 26 Control Messages;
#X text 51 314 Audio;
#X floatatom 102 173 5 0 1 1 Distance M_Distance -;
#X floatatom 111 193 5 0 0 1 LoK LoK -;
#X floatatom 123 212 5 0 0 1 HiK HiK -;
#X floatatom 144 231 5 0 1 1 EnvFollow EnvFollow -;
#X obj 101 299 outlet;
#X text 6 253 Features;
#X obj 360 35 block~ 2048 1 1;
#X obj 388 124 openpanel;
#X obj 324 163 s M_MSG;
#N canvas 864 504 207 175 presets 0;
#X obj 15 15 loadbang;
#X msg 15 46 \; FrameQueuei 4 \; SequenceHopi 5 \; EnvFollowi 0.5 \;
LoBasisi 10 \; NumBasisi 45 \; HiSeci 0 \; pd dsp 1;
#X connect 0 0 1 0;
#X restore 360 71 pd presets;
#X obj 221 75 dbtorms;
#X msg 265 58 0;
#X text 245 44 ON;
#X text 282 44 OFF;
#X obj 237 23 r SS_ON;
#X obj 291 23 r SS_OFF;
#X obj 53 92 *~ 0;
#X msg 324 127 stop;
#X obj 324 102 r SS_OFF;
#X text 358 18 FFT Size;
#X text 360 54 Parameters;
#X obj 53 55 inlet~;
#X floatatom 221 99 5 0 0 0 - - -;
#X obj 388 101 r EXTRACT;
#X obj 390 195 savepanel;
#X obj 390 239 s M_MSG;
#X msg 390 216 dump \$1;
#X obj 390 170 r SS_SAVE;
#X obj 249 170 r SS_LOAD;
#X obj 249 189 openpanel;
#X obj 250 253 openpanel;
#X msg 251 272 load \$1;
#X msg 250 231 bang;
#X obj 250 291 s M_MSG;
#X obj 344 280 print LOAD;
#X msg 322 229 SOUNDFILE;
#X msg 323 248 FEATURES;
#X obj 337 194 print;
#X obj 45 233 soundspotter~;
#X msg 271 127 spot;
#X obj 271 102 r SS_ON;
#X obj 209 118 r SS_LS;
#X msg 211 143 livespot;
#X msg 388 147 extract \$1;
#X msg 249 208 soundfile \$1;
#X floatatom 191 13 5 0 0 0 - - -;
#X obj 156 300 outlet;
#X text 143 319 Distance;
#X text 101 315 Frame;
#X msg 237 60 100;
#X connect 0 0 47 0;
#X connect 2 0 47 2;
#X connect 3 0 47 4;
#X connect 4 0 47 5;
#X connect 5 0 47 3;
#X connect 9 0 47 6;
#X connect 10 0 47 7;
#X connect 11 0 47 8;
#X connect 12 0 47 9;
#X connect 16 0 52 0;
#X connect 19 0 25 1;
#X connect 19 0 31 0;
#X connect 20 0 19 0;
#X connect 23 0 58 0;
#X connect 24 0 20 0;
#X connect 25 0 47 1;
#X connect 26 0 17 0;
#X connect 27 0 26 0;
#X connect 30 0 25 0;
#X connect 32 0 16 0;
#X connect 33 0 35 0;
#X connect 35 0 34 0;
#X connect 36 0 33 0;
#X connect 37 0 38 0;
#X connect 37 0 44 0;
#X connect 38 0 53 0;
#X connect 39 0 40 0;
#X connect 40 0 42 0;
#X connect 41 0 39 0;
#X connect 41 0 45 0;
#X connect 44 0 43 0;
#X connect 45 0 43 0;
#X connect 47 1 1 0;
#X connect 47 2 13 0;
#X connect 47 3 55 0;
#X connect 48 0 17 0;
#X connect 49 0 48 0;
#X connect 50 0 51 0;
#X connect 51 0 17 0;
#X connect 52 0 46 0;
#X connect 52 0 17 0;
#X connect 53 0 41 0;
#X connect 53 0 42 0;
#X connect 54 0 19 0;
#X connect 58 0 19 0;
#X coords 0 0 2 2 200 200 0;
