#N canvas 657 401 508 531 12;
#X obj 14 63 r M_MSG;
#X obj 26 90 inlet~;
#N canvas 677 158 469 648 spotbufs 1;
#X obj 46 -16 bng 15 250 50 0 empty empty empty 0 -6 0 8 -262144 -1
-1;
#X obj 50 211 bng 15 250 50 0 empty empty empty 0 -6 0 8 -262144 -1
-1;
#X obj 63 -18 openpanel;
#X obj 65 210 openpanel;
#X obj 65 267 soundfiler;
#X obj 63 36 s M_MSG;
#X obj 46 -44 r WAV1;
#X obj 50 186 r WAV2;
#N canvas 0 0 651 451 bufs 0;
#N canvas 0 0 450 300 (subpatch) 0;
#X array sourceBuf 2.64706e+006 float 0;
#X coords 0 1 2.64706e+006 -1 200 140 1;
#X restore 189 47 graph;
#N canvas 0 0 450 300 (subpatch) 0;
#X array targetBuf 1.50856e+007 float 0;
#X coords 0 1 1.50856e+007 -1 200 140 1;
#X restore 192 199 graph;
#X restore 209 -46 pd bufs;
#X obj 64 128 savepanel;
#X obj 48 127 bng 15 250 50 0 empty empty empty 0 -6 0 8 -262144 -1
-1;
#X msg 64 156 write -wave \$1 sourceBuf;
#X msg 65 236 read -maxsize 1.5876e+008 \$1 targetBuf;
#X obj 67 396 soundfiler;
#X obj 50 342 bng 15 250 50 0 empty empty empty 0 -6 0 8 -262144 -1
-1;
#X obj 67 342 openpanel;
#X msg 200 509 set sourceBuf;
#X msg 67 365 read -maxsize 1.5876e+008 \$1 sourceBuf;
#X obj 50 316 r WAV3;
#X obj 201 528 s M_MSG;
#X obj 95 488 openpanel;
#X msg 115 508 load \$1;
#X text 105 314 // Load wave file then feature file;
#X obj 212 460 print;
#X msg 210 440 Select Feature File;
#X msg 155 340 Select WAV file;
#X obj 286 341 print;
#X obj 70 420 t b b b;
#X msg 70 508 spot;
#X msg 63 10 extract \$1;
#X connect 0 0 2 0;
#X connect 1 0 3 0;
#X connect 2 0 29 0;
#X connect 3 0 12 0;
#X connect 6 0 0 0;
#X connect 7 0 1 0;
#X connect 9 0 11 0;
#X connect 10 0 9 0;
#X connect 11 0 4 0;
#X connect 12 0 4 0;
#X connect 13 0 27 0;
#X connect 14 0 15 0;
#X connect 15 0 17 0;
#X connect 16 0 19 0;
#X connect 17 0 13 0;
#X connect 18 0 25 0;
#X connect 18 0 14 0;
#X connect 20 0 21 0;
#X connect 21 0 19 0;
#X connect 24 0 23 0;
#X connect 25 0 26 0;
#X connect 27 0 28 0;
#X connect 27 1 20 0;
#X connect 27 2 24 0;
#X connect 27 2 16 0;
#X connect 28 0 19 0;
#X connect 29 0 5 0;
#X restore 236 19 pd spotbufs;
#X obj 66 349 outlet~;
#X obj 259 64 bang~;
#X obj 259 93 t b b;
#X obj 259 125 timer;
#X floatatom 33 114 5 0 0 1 FrameQueue FrameQueue -;
#X floatatom 61 158 5 0 0 1 LoBasis LoBasis -;
#X floatatom 73 183 5 0 0 1 NumBasis NumBasis -;
#X floatatom 49 136 5 0 0 1 SequenceSize SequenceHop -;
#X text 87 87 Live Audio Input;
#X text 77 61 Control Messages;
#X text 74 369 Audio;
#X text 9 39 FFT Size and Overlap;
#X text 222 43 Database Buffers;
#X obj 259 151 s Latency;
#X floatatom 85 207 5 0 1 1 Distance M_Distance -;
#X floatatom 97 228 5 0 0 1 LoK LoK -;
#X floatatom 109 248 5 0 0 1 HiK HiK -;
#X floatatom 129 270 5 0 1 1 EnvFollow EnvFollow -;
#X obj 161 352 outlet;
#X text 162 375 Match Frame;
#X text 253 173 // latency for live monitor;
#X text 1 287 Features;
#X obj 14 269 soundspotter~;
#X obj 11 17 block~ 2048 1 1;
#X connect 0 0 25 0;
#X connect 1 0 25 1;
#X connect 4 0 5 0;
#X connect 5 0 6 0;
#X connect 5 1 6 1;
#X connect 6 0 16 0;
#X connect 7 0 25 2;
#X connect 8 0 25 4;
#X connect 9 0 25 5;
#X connect 10 0 25 3;
#X connect 17 0 25 6;
#X connect 18 0 25 7;
#X connect 19 0 25 8;
#X connect 20 0 25 9;
#X connect 25 1 3 0;
#X connect 25 2 21 0;
#X coords 0 0 2 2 200 200 0;
