#N canvas 391 18 942 578 12;
#X obj 14 462 catch~ B;
#X obj 14 486 dac~;
#X obj 1 330 throw~ B;
#X obj 187 168 bng 15 250 50 0 empty empty empty 0 -6 0 8 -62784 -355
-1;
#X obj 188 184 s WAV2;
#N canvas 435 227 351 347 InputMonitor 0;
#X obj 130 106 inlet VOLUME;
#X obj 60 40 r Latency;
#X obj 9 114 sig~;
#X obj 9 197 throw~ B;
#X obj 130 141 dbtorms;
#X obj 9 161 *~;
#X obj 10 137 vd~ A;
#X floatatom 88 69 5 0 0 0 - - -;
#X obj 9 12 r seqHop;
#X text 57 129 latency;
#X floatatom 16 42 5 0 0 0 - - -;
#X floatatom 55 114 5 0 0 0 - - -;
#X text 133 67 frame rate;
#X obj 9 89 * 46.43;
#X msg 96 92 0;
#X connect 0 0 4 0;
#X connect 1 0 7 0;
#X connect 2 0 6 0;
#X connect 4 0 5 1;
#X connect 5 0 3 0;
#X connect 6 0 5 0;
#X connect 8 0 10 0;
#X connect 8 0 13 0;
#X connect 13 0 2 0;
#X connect 13 0 11 0;
#X connect 14 0 13 1;
#X restore 134 64 pd InputMonitor;
#X floatatom 134 47 5 0 0 2 InputMonitor - -;
#X text 185 151 TARGET;
#N canvas 0 375 647 384 presets 0;
#X restore 438 102 pd presets;
#X obj 27 170 tabplay~ targetBuf;
#X msg 95 150 0 1;
#X msg 126 150 1;
#X obj 47 63 dbtorms;
#X floatatom 47 47 5 0 110 2 Live_dB - -;
#X obj 26 91 adc~;
#X obj 26 145 *~;
#X obj 27 192 delwrite~ A 2000;
#X obj 260 182 cnv 15 350 60 empty empty MatchMode 5 -10 0 14 -233017
-66577 0;
#X obj 376 213 s M_MSG;
#X msg 333 193 stop;
#X msg 517 193 thru;
#X obj 263 296 cnv 15 550 150 empty empty Controls 5 -10 0 14 -233017
-66577 0;
#X floatatom 274 323 5 0 0 2 Queue FrameQueuei FrameQueue;
#X floatatom 356 323 5 0 0 2 Window SequenceHopi SequenceHop;
#X floatatom 274 377 5 0 0 2 LoBasis LoBasisi LoBasis;
#X obj 482 310 hsl 150 15 0 4 0 0 M_Distance Distancei Distance -2
-6 0 10 -262144 -1 -1 0 1;
#X floatatom 358 378 5 0 0 2 NumBasis NumBasisi NumBasis;
#X obj 262 60 cnv 15 500 75 empty empty Database 5 -10 0 14 -233017
-66577 0;
#X obj 302 77 bng 25 250 50 0 empty empty empty 0 -6 0 8 -62784 -260818
-1;
#N canvas 171 324 274 269 presets 0;
#X obj 15 15 loadbang;
#X msg 15 45 \; pd dsp 1 \; FrameQueuei 5 \; SequenceHopi 7 \; LoBasisi
0 \; NumBasisi 18 \; HiSeci 2 \; Distancei 0.1 \;;
#X connect 0 0 1 0;
#X restore 551 27 pd presets;
#X floatatom 479 329 5 0 0 0 - - -;
#X floatatom 585 415 5 0 7200 0 HiSec HiSeci HiK;
#X msg 383 193 spot;
#X msg 433 193 liveSpot;
#X obj 705 60 bng 15 250 50 0 empty empty empty 17 7 0 10 -24198 -241291
-1;
#X obj 467 58 bng 15 250 50 0 empty empty empty 17 7 0 10 -260818 -260818
-1;
#X obj 467 77 savepanel;
#X text 3 428 // OUTPUT BUS;
#X text 636 92 * wav;
#X text 635 107 * features;
#X obj 482 369 hsl 150 15 0 1 0 0 EnvFollow empty EnvFollow -2 -8 0
10 -262144 -33289 -1 0 1;
#X floatatom 479 385 5 0 0 0 - - -;
#X floatatom 480 415 5 0 0 0 LoSec LoSeci LoK;
#X obj 166 329 throw~ C;
#X obj 88 462 catch~ C;
#X obj 675 308 hsl 128 15 0 1 0 0 M_FB empty Feedback -2 -8 0 10 -262144
-1 -1 0 1;
#X floatatom 673 329 5 0 0 0 - - -;
#X msg 6 2 0;
#X msg 7 22 75;
#N canvas 496 334 474 462 spotbufs 0;
#X msg 25 289 read -resize \$1 targetBuf;
#X obj 10 -37 bng 15 250 50 0 empty empty empty 0 -6 0 8 -262144 -1
-1;
#X obj 10 264 bng 15 250 50 0 empty empty empty 0 -6 0 8 -262144 -1
-1;
#X obj 27 -39 openpanel;
#X obj 25 263 openpanel;
#X obj 25 320 soundfiler;
#X obj 10 239 r WAV2;
#N canvas 0 0 651 451 bufs 0;
#N canvas 0 0 450 300 (subpatch) 0;
#X array targetBuf 1.50856e+007 float 0;
#X coords 0 1 1.50856e+007 -1 200 140 1;
#X restore 192 199 graph;
#X restore 231 -55 pd bufs;
#X msg 27 -16 extract \$1;
#X obj 10 -65 r WAVL;
#X obj 27 11 s M_MSGL;
#X obj 106 -38 bng 15 250 50 0 empty empty empty 0 -6 0 8 -262144 -1
-1;
#X obj 123 -40 openpanel;
#X msg 123 -17 extract \$1;
#X obj 106 -67 r WAVR;
#X obj 123 14 s M_MSGR;
#X obj 289 90 openpanel;
#X msg 289 113 soundfile \$1;
#X obj 291 174 openpanel;
#X msg 290 200 load \$1;
#X obj 96 94 openpanel;
#X msg 96 117 soundfile \$1;
#X obj 96 139 s M_MSGL;
#X obj 93 171 openpanel;
#X obj 93 221 s M_MSGL;
#X msg 93 194 load \$1;
#X obj 290 227 s M_MSGR;
#X obj 290 136 s M_MSGR;
#X obj 202 44 r LOADR;
#X obj 14 48 r LOADL;
#X obj 12 74 t b b b;
#X obj 204 70 t b b b;
#X msg 210 136 spot;
#X msg 11 128 spot;
#X connect 0 0 5 0;
#X connect 1 0 3 0;
#X connect 2 0 4 0;
#X connect 3 0 8 0;
#X connect 4 0 0 0;
#X connect 6 0 2 0;
#X connect 8 0 10 0;
#X connect 9 0 1 0;
#X connect 11 0 12 0;
#X connect 12 0 13 0;
#X connect 13 0 15 0;
#X connect 14 0 11 0;
#X connect 16 0 17 0;
#X connect 17 0 27 0;
#X connect 18 0 19 0;
#X connect 19 0 26 0;
#X connect 20 0 21 0;
#X connect 21 0 22 0;
#X connect 23 0 25 0;
#X connect 25 0 24 0;
#X connect 28 0 31 0;
#X connect 29 0 30 0;
#X connect 30 0 33 0;
#X connect 30 1 20 0;
#X connect 30 1 23 0;
#X connect 31 0 32 0;
#X connect 31 1 16 0;
#X connect 31 1 18 0;
#X connect 32 0 26 0;
#X connect 33 0 24 0;
#X restore 667 155 pd spotbufs;
#X text 663 174 Sound Buffers;
#X obj 303 103 s WAVL;
#X obj 385 77 bng 25 250 50 0 empty empty empty 0 -6 0 8 -62784 -260818
-1;
#X obj 385 103 s WAVR;
#X text 371 59 EXTRACT R;
#X text 289 59 EXTRACT L;
#X obj 3 292 SOUND_SPOTTER_L;
#X obj 141 292 SOUND_SPOTTER_R;
#X msg 105 6 0;
#X msg 106 26 75;
#X obj 465 120 s M_MSGL;
#X obj 551 120 s M_MSGR;
#X msg 10 631 \; FrameQueuei 4 \; SequenceHopi 0 \; LoBasisi 10 \;
NumBasisi 18 \; HiSeci 0 \; Distancei 0.912 \;;
#X msg 213 629 \; FrameQueuei 3 \; SequenceHopi 8 \; LoBasisi 0 \;
NumBasisi 89 \; HiSeci 1 \; Distancei 0.865 \; LoSeci 0 \;;
#X msg 402 630 \; FrameQueuei 5 \; SequenceHopi 7 \; LoBasisi 0 \;
NumBasisi 18 \; Distancei 0.865 \; HiSeci 2 \; LoSeci 8 \;;
#X obj 674 371 hsl 128 15 0 1 0 0 M_FBCross empty Feedback_Cross -2
-8 0 10 -262144 -1 -1 12700 1;
#X floatatom 672 392 5 0 0 0 - - -;
#X obj 633 60 bng 15 250 50 0 empty empty empty 17 7 0 10 -24198 -241291
-1;
#X obj 633 74 s LOADL;
#X obj 703 76 s LOADR;
#X text 488 56 DUMP L;
#X obj 549 60 bng 15 250 50 0 empty empty empty 17 7 0 10 -260818 -260818
-1;
#X obj 549 75 savepanel;
#X text 567 55 DUMP R;
#X msg 466 100 dump \$1;
#X msg 551 100 dump \$1;
#X text 721 58 LOAD-R;
#X text 649 58 LOAD-L;
#N canvas 205 470 514 244 feedback 0;
#X obj 34 -30 inlet~;
#X obj 331 -33 inlet~;
#X obj 330 84 *~;
#X obj 349 46 r M_FB;
#X obj 329 136 delwrite~ FBR 46.43;
#X obj 35 92 *~;
#X obj 54 45 r M_FB;
#X obj 34 132 delwrite~ FBL 46.43;
#X obj 181 -28 r M_FBCross;
#X obj 216 69 *~;
#X obj 162 69 *~;
#X connect 0 0 10 0;
#X connect 0 0 5 0;
#X connect 1 0 9 0;
#X connect 1 0 2 0;
#X connect 2 0 4 0;
#X connect 3 0 2 1;
#X connect 5 0 7 0;
#X connect 6 0 5 1;
#X connect 8 0 9 1;
#X connect 8 0 10 1;
#X connect 9 0 7 0;
#X connect 10 0 4 0;
#X restore 72 328 pd feedback;
#X obj 17 267 delread~ FBL;
#X obj 148 267 delread~ FBR;
#X connect 0 0 1 0;
#X connect 3 0 4 0;
#X connect 6 0 5 0;
#X connect 9 0 16 0;
#X connect 9 0 56 0;
#X connect 9 0 57 0;
#X connect 10 0 9 0;
#X connect 11 0 9 0;
#X connect 12 0 15 1;
#X connect 13 0 12 0;
#X connect 14 0 15 0;
#X connect 15 0 16 0;
#X connect 15 0 56 0;
#X connect 15 0 57 0;
#X connect 19 0 18 0;
#X connect 20 0 18 0;
#X connect 25 0 30 0;
#X connect 28 0 51 0;
#X connect 32 0 18 0;
#X connect 33 0 18 0;
#X connect 34 0 69 0;
#X connect 35 0 36 0;
#X connect 36 0 74 0;
#X connect 40 0 41 0;
#X connect 44 0 1 1;
#X connect 45 0 46 0;
#X connect 47 0 13 0;
#X connect 48 0 13 0;
#X connect 52 0 53 0;
#X connect 56 0 2 0;
#X connect 56 0 78 0;
#X connect 57 0 43 0;
#X connect 57 0 78 1;
#X connect 58 0 6 0;
#X connect 59 0 6 0;
#X connect 65 0 66 0;
#X connect 67 0 68 0;
#X connect 71 0 72 0;
#X connect 72 0 75 0;
#X connect 74 0 60 0;
#X connect 75 0 61 0;
#X connect 79 0 56 0;
#X connect 80 0 57 0;
