#N canvas 668 0 884 641 12;
#X obj 23 384 catch~ B;
#X obj 23 411 dac~;
#X obj 22 262 throw~ B;
#X obj 170 148 bng 15 250 50 0 empty empty empty 0 -6 0 8 -62784 -355
-1;
#X obj 171 164 s WAV2;
#N canvas 802 628 367 363 InputMonitor 0;
#X obj 130 106 inlet VOLUME;
#X obj 109 32 r Latency;
#X obj 9 114 sig~;
#X obj 9 197 throw~ B;
#X obj 130 141 dbtorms;
#X obj 9 161 *~;
#X obj 10 137 vd~ A;
#X floatatom 102 58 5 0 0 0 - - -;
#X obj 9 12 r seqHop;
#X text 57 129 latency;
#X floatatom 16 42 5 0 0 0 - - -;
#X floatatom 55 114 5 0 0 0 - - -;
#X text 133 67 frame rate;
#X obj 9 89 * 46.43;
#X msg 60 60 0;
#X connect 0 0 4 0;
#X connect 1 0 7 0;
#X connect 2 0 6 0;
#X connect 4 0 5 1;
#X connect 5 0 3 0;
#X connect 6 0 5 0;
#X connect 7 0 13 1;
#X connect 8 0 10 0;
#X connect 8 0 13 0;
#X connect 13 0 2 0;
#X connect 13 0 11 0;
#X connect 14 0 13 1;
#X restore 142 26 pd InputMonitor;
#X floatatom 142 9 5 0 0 2 InputMonitor InputVol -;
#X text 168 131 TARGET;
#N canvas 0 375 647 384 presets 0;
#X restore 513 76 pd presets;
#X obj 22 155 tabplay~ targetBuf;
#X msg 22 135 0 1;
#X msg 61 135 1;
#X obj 40 42 dbtorms;
#X floatatom 63 25 5 0 110 0 Live_dB - -;
#X obj 21 70 adc~;
#X obj 21 93 *~;
#X obj 22 175 delwrite~ A 2000;
#X obj 270 159 cnv 15 350 60 empty empty MatchMode 5 -10 0 14 -233017
-66577 0;
#X obj 376 192 s M_MSG;
#X msg 332 172 stop;
#X msg 517 172 thru;
#X obj 266 308 cnv 15 400 160 empty empty Controls 5 -10 0 14 -233017
-66577 0;
#X floatatom 279 329 5 0 0 2 Queue FrameQueuei FrameQueue;
#X floatatom 361 329 5 0 0 2 Window SequenceHopi SequenceHop;
#X floatatom 279 383 5 0 0 2 LoBasis LoBasisi LoBasis;
#X obj 487 316 hsl 150 15 0 4 0 0 M_Distance Distancei Distance -2
-6 0 10 -262144 -1 -1 0 1;
#X floatatom 363 384 5 0 0 2 NumBasis NumBasisi NumBasis;
#X obj 262 39 cnv 15 450 75 empty empty Database 5 -10 0 14 -233017
-66577 0;
#X obj 303 56 bng 25 250 50 0 empty empty empty 0 -6 0 8 -62784 -260818
-1;
#X obj 303 82 s WAV1;
#N canvas 527 517 219 187 presets 0;
#X obj 15 15 loadbang;
#X msg 15 46 \; FrameQueuei 4 \; SequenceHopi 5 \; LoBasisi 10 \; NumBasisi
45 \; HiSeci 5;
#X connect 0 0 1 0;
#X restore 638 124 pd presets;
#X floatatom 484 335 5 0 0 0 - - -;
#X floatatom 584 408 5 0 0 0 HiSec HiSeci HiK;
#X floatatom 485 407 5 0 0 0 LoSec - LoK;
#X msg 383 172 spot;
#X msg 433 172 liveSpot;
#X obj 623 39 bng 15 250 50 0 empty empty empty 17 7 0 10 -24198 -241291
-1;
#X obj 541 39 bng 15 250 50 0 empty empty empty 17 7 0 10 -260818 -260818
-1;
#X obj 541 54 savepanel;
#X obj 540 94 s M_MSG;
#X msg 541 74 dump \$1;
#X text 95 379 // OUTPUT BUS;
#X obj 623 53 s WAV3;
#X text 638 37 LOAD;
#X text 289 38 EXTRACT;
#X text 626 71 * wav;
#X text 625 86 * features;
#X obj 484 437 hsl 150 15 0 1 0 0 FeedBack FeedBacki Feedback -2 -8
0 10 -262144 -33289 -1 0 1;
#X floatatom 481 449 5 0 0 0 - - -;
#X text 558 37 DUMP;
#X obj 384 -101 bng 15 250 50 0 empty empty vid_start -80 7 0 10 -262144
-1 -1;
#X floatatom 384 -80 5 0 0 0 start_time - videoStart;
#X obj 403 -47 r videoStart;
#X obj 0 -114 cnv 1 300 30 empty empty SOUNDSPOTTER 20 12 0 28 -233017
-66577 0;
#X obj 507 -51 bng 15 250 50 0 videoStop empty stop 17 7 0 10 -262144
-1 -1;
#X obj 438 -100 hsl 256 20 0 10000 0 0 empty empty empty -2 -8 0 10
-262144 -1 -1 0 1;
#X obj 279 192 s videoStop;
#X obj 466 -8 netsend;
#X msg 406 -28 send \$1;
#X obj 121 272 netsend;
#X msg 276 252 connect localhost 3000;
#X msg 121 252 send \$1;
#X msg 594 -28 connect localhost 3001;
#X msg 507 -28 disconnect;
#X msg 187 252 disconnect;
#X obj 571 -57 netsend;
#X msg 507 -77 send \$1;
#X msg 571 -77 disconnect;
#X msg 659 -77 connect localhost 3002;
#X obj 435 -70 t b f;
#X msg 108 5 0;
#N canvas 771 577 509 411 midictrl 0;
#X obj 170 93 notein;
#X floatatom 170 113 5 63 66 0 - - -;
#X floatatom 214 113 5 0 0 0 - - -;
#X floatatom 258 113 5 0 0 0 - - -;
#X floatatom 170 157 5 0 0 0 - - -;
#X floatatom 228 158 5 0 0 0 - - -;
#X obj 170 135 moses 65;
#X obj 229 178 moses 66;
#X obj 170 205 bng 15 250 50 0 empty empty empty 17 7 0 10 -262144
-1 -1;
#X obj 229 205 bng 15 250 50 0 empty empty empty 17 7 0 10 -262144
-1 -1;
#X obj 288 205 bng 15 250 50 0 empty empty empty 17 7 0 10 -262144
-1 -1;
#X text 25 11 // MIDI CONTROL: // 64 = low activity // 65 = medium
activity // 66 = high activity;
#X text 1 297 // Set the shingle size based on activity;
#X obj 228 271 s SequenceHopi;
#X msg 170 229 50;
#X msg 288 228 7;
#X msg 229 229 20;
#X connect 0 0 1 0;
#X connect 0 1 2 0;
#X connect 0 2 3 0;
#X connect 1 0 6 0;
#X connect 4 0 8 0;
#X connect 5 0 7 0;
#X connect 6 0 4 0;
#X connect 6 1 5 0;
#X connect 7 0 9 0;
#X connect 7 1 10 0;
#X connect 8 0 14 0;
#X connect 9 0 16 0;
#X connect 10 0 15 0;
#X connect 14 0 13 0;
#X connect 15 0 13 0;
#X connect 16 0 13 0;
#X restore 276 420 pd midictrl;
#X obj 159 188 vd~ B 1;
#X obj 22 292 delwrite~ B;
#X obj 160 214 *~;
#X obj 487 368 hsl 150 15 0 1 0 0 EnvFollow empty EnvFollow -2 -8 0
10 -262144 -33289 -1 0 1;
#X floatatom 484 384 5 0 0 0 - - -;
#X obj 187 214 r FeedBack;
#X msg 80 5 75;
#X obj 101 -60 metro 300;
#X obj 60 -41 i 0;
#X obj 145 -26 + 1;
#X msg 38 -68 0;
#X obj 80 -72 bng 15 250 50 0 empty empty empty 17 7 0 10 -262144 -1
-1;
#X floatatom 236 -17 5 0 0 0 - - -;
#X obj 21 234 SOUND_SPOTTER;
#X obj 703 250 ctlin 1;
#X obj 703 278 / 5;
#X floatatom 701 306 5 0 0 0 - - FrameQueuei;
#X floatatom 776 306 5 0 0 0 - - SequenceHopi;
#X obj 778 250 ctlin 2;
#X obj 778 278 / 10;
#X obj 703 380 / 5;
#X floatatom 701 408 5 0 0 0 - - LoBasisi;
#X obj 703 352 ctlin 3;
#X floatatom 776 406 5 0 0 0 - - NumBasisi;
#X obj 778 350 ctlin 4;
#X obj 778 378 / 2;
#X floatatom 729 493 5 0 0 0 - - FeedBacki;
#X obj 731 465 / 127;
#X obj 731 437 ctlin 5;
#X connect 0 0 1 1;
#X connect 0 0 1 0;
#X connect 3 0 4 0;
#X connect 6 0 5 0;
#X connect 9 0 16 0;
#X connect 9 0 85 0;
#X connect 10 0 9 0;
#X connect 11 0 9 0;
#X connect 12 0 15 1;
#X connect 13 0 12 0;
#X connect 14 0 15 0;
#X connect 15 0 16 0;
#X connect 15 0 85 0;
#X connect 19 0 18 0;
#X connect 19 0 56 0;
#X connect 20 0 18 0;
#X connect 25 0 31 0;
#X connect 28 0 29 0;
#X connect 34 0 18 0;
#X connect 35 0 18 0;
#X connect 36 0 42 0;
#X connect 37 0 38 0;
#X connect 38 0 40 0;
#X connect 40 0 39 0;
#X connect 47 0 48 0;
#X connect 50 0 51 0;
#X connect 54 0 66 0;
#X connect 55 0 51 0;
#X connect 55 0 69 0;
#X connect 58 0 57 0;
#X connect 60 0 59 0;
#X connect 61 0 59 0;
#X connect 62 0 57 0;
#X connect 63 0 57 0;
#X connect 64 0 59 0;
#X connect 66 0 65 0;
#X connect 67 0 65 0;
#X connect 68 0 65 0;
#X connect 69 0 54 0;
#X connect 69 1 58 0;
#X connect 70 0 13 0;
#X connect 72 0 74 0;
#X connect 74 0 85 0;
#X connect 75 0 76 0;
#X connect 77 0 74 1;
#X connect 78 0 13 0;
#X connect 79 0 80 0;
#X connect 80 0 81 0;
#X connect 81 0 80 1;
#X connect 81 0 5 0;
#X connect 81 0 84 0;
#X connect 82 0 80 1;
#X connect 83 0 82 0;
#X connect 83 0 79 0;
#X connect 83 0 11 0;
#X connect 85 0 2 0;
#X connect 85 0 73 0;
#X connect 85 1 61 0;
#X connect 86 0 87 0;
#X connect 87 0 88 0;
#X connect 90 0 91 0;
#X connect 91 0 89 0;
#X connect 92 0 93 0;
#X connect 94 0 92 0;
#X connect 96 0 97 0;
#X connect 97 0 95 0;
#X connect 99 0 98 0;
#X connect 100 0 99 0;
