#N canvas 168 526 750 453 10;
#X obj 109 -6 inlet;
#X obj 249 80 gemwin;
#X msg 249 23 1;
#X msg 249 53 0;
#X msg 248 -32 create;
#X msg 248 -12 destroy;
#X obj 359 238 gemhead;
#X floatatom 459 194 9 0 0 0 - - -;
#X obj 412 126 t b f;
#X obj 426 177 i;
#X obj 376 179 + 1;
#X obj 426 152 metro 40;
#X obj 132 34 i 0;
#X obj 113 14 t f b;
#X obj 113 87 !=;
#X obj 49 53 i;
#X obj -2 108 moses 1;
#X msg 47 34 bang;
#X msg 286 248 open \$1;
#X obj 286 221 openpanel;
#X obj 286 199 bng 15 250 50 0 empty empty empty 17 7 0 10 -262144
-1 -1;
#X msg 325 132 0;
#X text 462 86 //25 fps;
#X obj 412 54 r videoStart;
#X obj 412 81 * 25;
#X obj 604 229 / 25;
#X floatatom 603 252 15 0 0 0 - - -;
#X msg 604 202 23;
#X obj 325 106 r videoStop;
#X obj -50 -38 netreceive 3000;
#X floatatom 65 -3 5 0 0 0 - - -;
#X floatatom -50 -3 5 0 0 0 - - -;
#X obj -23 72 * 0.0464399;
#X obj -23 126 s videoStart;
#X obj 87 107 netreceive 3001;
#X floatatom 202 135 5 0 0 0 - - -;
#X obj 496 111 netreceive 3002;
#X floatatom 611 142 5 0 0 0 - - -;
#X obj 393 324 unpack 0 0 0;
#X floatatom 356 343 10 0 0 0 - - -;
#X floatatom 445 344 5 0 0 0 - - -;
#X floatatom 500 345 5 0 0 0 - - -;
#X obj 359 297 rectangle 5 4;
#X obj 359 268 pix_movie;
#X connect 0 0 13 0;
#X connect 2 0 1 0;
#X connect 3 0 1 0;
#X connect 4 0 1 0;
#X connect 5 0 1 0;
#X connect 6 0 43 0;
#X connect 7 0 43 1;
#X connect 8 0 11 0;
#X connect 8 1 9 1;
#X connect 9 0 10 0;
#X connect 9 0 7 0;
#X connect 10 0 9 1;
#X connect 11 0 9 0;
#X connect 12 0 14 1;
#X connect 13 0 12 1;
#X connect 13 0 14 0;
#X connect 13 0 15 1;
#X connect 13 1 12 0;
#X connect 14 0 16 0;
#X connect 15 0 32 0;
#X connect 16 1 17 0;
#X connect 17 0 15 0;
#X connect 18 0 43 0;
#X connect 19 0 18 0;
#X connect 20 0 19 0;
#X connect 21 0 11 0;
#X connect 23 0 24 0;
#X connect 24 0 8 0;
#X connect 25 0 26 0;
#X connect 27 0 25 0;
#X connect 28 0 21 0;
#X connect 29 0 31 0;
#X connect 29 1 30 0;
#X connect 31 0 13 0;
#X connect 32 0 33 0;
#X connect 34 0 33 0;
#X connect 34 1 35 0;
#X connect 36 0 21 0;
#X connect 36 1 37 0;
#X connect 38 0 39 0;
#X connect 38 1 40 0;
#X connect 38 2 41 0;
#X connect 43 0 42 0;
#X connect 43 1 38 0;
